<?xml version="1.0" encoding="utf-8"?>
<!-- Generator: Adobe Illustrator 27.2.0, SVG Export Plug-In . SVG Version: 6.00 Build 0)  -->
<svg version="1.1" id="Layer_1" xmlns="http://www.w3.org/2000/svg" xmlns:xlink="http://www.w3.org/1999/xlink" x="0px" y="0px"
	 viewBox="0 0 320 130" style="enable-background:new 0 0 320 130;" xml:space="preserve">
<style type="text/css">
	.st0{fill-rule:evenodd;clip-rule:evenodd;fill:#3276BC;}
	.st1{fill-rule:evenodd;clip-rule:evenodd;fill:#2272B9;}
	.st2{fill-rule:evenodd;clip-rule:evenodd;fill:#162B54;}
	.st3{fill-rule:evenodd;clip-rule:evenodd;fill:#39A4DD;}
	.st4{fill-rule:evenodd;clip-rule:evenodd;fill:#FFFFFF;}
	.st5{fill-rule:evenodd;clip-rule:evenodd;fill:#84D2F6;}
	.st6{fill-rule:evenodd;clip-rule:evenodd;fill:#009789;}
	.st7{fill-rule:evenodd;clip-rule:evenodd;fill:#4DB6AC;}
	.st8{fill-rule:evenodd;clip-rule:evenodd;fill:#FFDF82;}
	.st9{fill-rule:evenodd;clip-rule:evenodd;fill:#FFCB2A;}
	.st10{fill-rule:evenodd;clip-rule:evenodd;fill:#FEEA3A;}
	.st11{fill-rule:evenodd;clip-rule:evenodd;fill:#FFD550;}
	.st12{fill-rule:evenodd;clip-rule:evenodd;fill:#010101;}
	.st13{fill:none;stroke:#FFFFFF;stroke-width:4;stroke-linecap:round;}
	.st14{fill-rule:evenodd;clip-rule:evenodd;fill:#EF4538;}
	.st15{fill-rule:evenodd;clip-rule:evenodd;fill:#EE9A9B;}
	.st16{fill:#FFFFFF;}
	.st17{fill:#FFFFFF;stroke:#000000;stroke-miterlimit:10;}
	.st18{font-family:'MyriadPro-Regular';}
	.st19{font-size:6.8817px;}
	.st20{fill:none;stroke:#000000;stroke-miterlimit:10;}
</style>
<symbol  id="A" viewBox="-40 -40 80 80">
	<g>
		<path class="st0" d="M40,0.08c0-8.98-3.04-17.64-8.64-24.69l0,0l-0.32-0.32c-0.16-0.16-0.16-0.32-0.32-0.48l-2.56-2.73l0,0
			C20.64-35.83,10.72-40,0-40h-0.16l0,0h-0.16c-10.56,0.16-20.32,4.17-27.84,11.7l0,0l-2.72,2.89c-0.16,0.16-0.16,0.32-0.32,0.48
			l-0.32,0.16l0,0C-36.96-17.72-40-8.9-40,0.08s3.04,17.64,8.64,24.69l0,0l0.32,0.32c0.16,0.16,0.16,0.32,0.32,0.48l2.56,2.72l0,0
			C-20.64,35.83-10.88,40-0.32,40h0.16l0,0H0c10.56,0,20.64-4.17,28.16-11.7l0,0l2.56-2.89c0.16-0.16,0.16-0.32,0.32-0.48l0.32-0.32
			l0,0C36.96,17.88,40,9.06,40,0.08z M23.84-26.05c-0.16,0-0.32,0.16-0.48,0.16c-0.32,0.16-0.64,0.32-0.8,0.32
			c-0.64,0.32-1.44,0.48-2.24,0.8c-0.16,0-0.32,0.16-0.48,0.16c-0.96,0.32-1.76,0.48-2.72,0.8l0,0c-0.16,0-0.48,0.16-0.64,0.16
			c-1.44-3.85-3.2-7.21-5.28-9.78C15.84-31.98,20.16-29.42,23.84-26.05z M-0.32-35.35L-0.32-35.35c4.48,0,8.96,4.65,12.16,12.66
			C8.16-22.05,4.16-21.72,0-21.72s-8.32-0.32-12.16-0.96C-9.12-30.54-4.64-35.19-0.32-35.35z M-11.68-33.27
			c-1.92,2.56-3.68,5.77-5.12,9.62h-0.32l0,0c-0.96-0.32-1.92-0.48-2.72-0.8c-0.16,0-0.32-0.16-0.48-0.16
			c-0.64-0.32-1.44-0.64-2.08-0.96c-0.32-0.16-0.48-0.16-0.8-0.32c-0.16-0.16-0.32-0.16-0.64-0.32
			C-20.16-29.26-16.16-31.82-11.68-33.27L-11.68-33.27z M-23.84,26.21c0.16,0,0.32-0.16,0.48-0.16c0.32-0.16,0.48-0.16,0.8-0.32
			c0.64-0.32,1.44-0.48,2.24-0.8c0.16,0,0.32-0.16,0.48-0.16c0.96-0.32,1.76-0.48,2.72-0.8l0,0h0.32c1.44,3.69,3.2,7.05,5.12,9.62
			C-16.16,31.98-20.32,29.42-23.84,26.21L-23.84,26.21z M-0.16,35.51L-0.16,35.51c-4.48-0.16-8.96-4.65-12-12.51
			c3.84-0.64,8-0.96,12.16-0.96s8,0.32,11.84,0.96C8.8,30.86,4.16,35.51-0.16,35.51z M11.2,33.59c2.08-2.57,3.84-5.93,5.28-9.78
			c0.16,0,0.48,0.16,0.64,0.16l0,0c0.96,0.32,1.92,0.48,2.72,0.8c0.16,0,0.32,0.16,0.48,0.16c0.8,0.32,1.44,0.48,2.24,0.8
			c0.32,0.16,0.48,0.16,0.8,0.32c0.16,0,0.32,0.16,0.64,0.32C20.16,29.58,15.84,32.14,11.2,33.59z M27.36,22.52L27.36,22.52
			c-0.48,0-0.8-0.16-1.28-0.32s-1.12-0.48-1.6-0.64c-0.16,0-0.32-0.16-0.48-0.16c-1.92-0.8-4-1.28-6.08-1.92
			c0.48-1.92,0.96-3.85,1.28-5.77h-4.8c-0.32,1.76-0.64,3.37-1.12,4.81C9.12,17.72,4.64,17.4,0,17.4c-4.8,0-9.28,0.48-13.6,1.28
			c-0.48-1.6-0.8-3.21-1.12-4.97h-4.8c0.32,2.08,0.8,4.01,1.28,5.93c-1.92,0.48-3.84,1.12-5.6,1.76c-0.16,0.16-0.48,0.16-0.64,0.32
			c-0.48,0.16-1.12,0.48-1.6,0.64c-0.32,0-0.8,0.16-1.12,0.32l0,0c-4.8-5.77-7.52-12.99-8-20.36h4v-4.65h-4
			c0.48-7.38,3.2-14.43,7.84-20.04l0.16-0.16c0.32,0.16,0.8,0.32,1.12,0.48c0.64,0.32,1.12,0.48,1.76,0.8
			c0.16,0,0.32,0.16,0.48,0.16c1.76,0.64,3.68,1.28,5.76,1.76c-0.48,1.76-0.8,3.53-1.12,5.29h4.8l0.96-4.33
			c4.32,0.8,8.96,1.28,13.6,1.28s9.12-0.48,13.28-1.12c0.32,1.28,0.64,2.73,0.96,4.33h4.8c-0.32-1.76-0.64-3.53-1.12-5.29
			c2.08-0.48,4-1.12,5.92-1.92c0.16,0,0.48-0.16,0.64-0.16c0.64-0.16,1.12-0.48,1.76-0.64c0.32-0.16,0.8-0.32,1.12-0.48l0,0
			c4.64,5.77,7.52,12.83,8,20.2h-4.8v4.65h4.8C34.72,9.7,32,16.92,27.36,22.52L27.36,22.52z M-10.08-0.24c0,1.92-0.32,3.53-0.8,4.81
			s-1.28,2.4-2.08,3.37c-0.96,0.8-2.08,1.44-3.36,1.92c-1.28,0.32-2.88,0.64-4.8,0.64h-4.96c-0.32,0-0.64-0.16-0.96-0.32
			s-0.16-0.64-0.16-1.12V-9.06c0-0.48,0.16-0.8,0.32-0.96s0.48-0.32,0.96-0.32h5.28c1.92,0,3.36,0.16,4.64,0.64s2.4,1.12,3.2,1.92
			s1.6,1.92,2.08,3.21C-10.4-3.29-10.08-1.85-10.08-0.24L-10.08-0.24z M-14.4-0.08c0-0.96-0.16-1.92-0.32-2.72s-0.64-1.6-1.12-2.24
			s-1.12-1.12-1.92-1.44s-1.76-0.48-3.2-0.48h-2.08V7.13h2.24c1.12,0,2.08-0.16,2.88-0.48s1.44-0.8,1.92-1.28
			c0.48-0.64,0.96-1.28,1.12-2.24C-14.56,2.16-14.4,1.04-14.4-0.08z M10.4,8.9c0,0.32,0,0.48-0.16,0.64s-0.16,0.32-0.32,0.48
			s-0.32,0.16-0.48,0.32c-0.16,0-0.32,0.16-0.64,0.16H7.04c-0.32,0-0.64,0-0.96-0.16c-0.32,0-0.48-0.16-0.8-0.48
			C5.12,9.7,4.8,9.38,4.64,9.06S4.16,8.25,4,7.77l-5.12-9.62c-0.32-0.64-0.64-1.12-0.96-1.92c-0.32-0.64-0.64-1.28-0.8-1.92l0,0
			c0,0.8,0,1.6,0.16,2.24v2.4v10.9c0,0.16,0,0.16-0.16,0.32c0,0.16-0.16,0.16-0.32,0.16s-0.32,0.16-0.64,0.16H-4.8h-0.96
			c-0.32,0-0.48,0-0.64-0.16c-0.16,0-0.16-0.16-0.32-0.16V9.86v-18.6c0-0.48,0.16-0.8,0.48-1.12s0.64-0.32,1.12-0.32h2.24
			c0.48,0,0.8,0,0.96,0.16c0.32,0,0.48,0.16,0.8,0.32c0.16,0.16,0.48,0.32,0.64,0.64c0.19,0.39,0.4,0.76,0.64,1.12l4,7.53
			C4.32,0.08,4.64,0.56,4.8,0.88c0.16,0.48,0.48,0.96,0.64,1.28c0.16,0.48,0.48,0.8,0.64,1.28s0.32,0.8,0.64,1.28l0,0v-2.4V0.08
			V-9.7c0-0.16,0-0.16,0.16-0.32c0-0.16,0.16-0.16,0.32-0.16s0.32-0.16,0.64-0.16H8.8h0.96c0.32,0,0.48,0,0.64,0.16
			c0.16,0,0.16,0.16,0.32,0.16v0.32V8.9C10.72,8.9,10.4,8.9,10.4,8.9z"/>
		<path class="st0" d="M27.2,4.25c0,1.12-0.16,2.08-0.64,2.89s-0.96,1.44-1.6,2.08c-0.64,0.48-1.44,0.96-2.4,1.28
			s-1.92,0.48-3.04,0.48c-0.64,0-1.44,0-1.92-0.16L16,10.34c-0.48-0.16-0.8-0.32-1.12-0.48s-0.48-0.32-0.64-0.48
			s-0.16-0.32-0.32-0.64c0-0.32-0.16-0.64-0.16-1.12v-0.8c0-0.16,0-0.48,0.16-0.48c0-0.16,0.16-0.16,0.16-0.32
			c0,0,0.16-0.16,0.32-0.16s0.32,0.16,0.64,0.32s0.64,0.32,1.12,0.64c0.48,0.16,0.96,0.48,1.6,0.64s1.28,0.32,2.08,0.32
			c0.48,0,0.96,0,1.44-0.16s0.8-0.32,0.96-0.48c0.32-0.16,0.48-0.48,0.64-0.8s0.16-0.64,0.16-1.12s-0.16-0.8-0.32-1.28l-0.96-0.96
			c-0.48-0.32-0.8-0.48-1.44-0.8c-0.48-0.16-1.12-0.48-1.6-0.8s-1.12-0.48-1.6-0.8s-0.96-0.64-1.44-1.12s-0.8-0.96-0.96-1.6
			C14.4-2.81,14.4-3.45,14.4-4.41s0.16-1.92,0.48-2.56c0.32-0.8,0.8-1.44,1.44-1.92s1.28-0.8,2.24-1.12
			c0.8-0.32,1.76-0.32,2.72-0.32c0.48,0,0.96,0,1.44,0.16c0.48,0,0.96,0.16,1.44,0.32s0.8,0.32,1.12,0.48s0.48,0.32,0.64,0.32
			c0.16,0.16,0.16,0.16,0.16,0.32c0,0,0,0.16,0.16,0.32v0.48v0.64v0.8v0.48c0,0.16-0.16,0.16-0.16,0.32c0,0-0.16,0.16-0.32,0.16
			s-0.32,0-0.48-0.16l-0.96-0.48c-0.32-0.16-0.8-0.32-1.28-0.48s-0.96-0.16-1.6-0.16c-0.48,0-0.8,0-1.12,0.16s-0.64,0.32-0.8,0.48
			s-0.32,0.48-0.48,0.64c-0.16,0.32-0.16,0.64-0.16,0.8c0,0.48,0.16,0.8,0.32,1.12l0.96,0.96c0.48,0.32,0.96,0.48,1.44,0.8
			c0.48,0.16,1.12,0.48,1.6,0.8s1.12,0.48,1.6,0.8s0.96,0.64,1.44,1.12s0.8,0.96,0.96,1.6C27.04,2.64,27.2,3.29,27.2,4.25L27.2,4.25
			z"/>
	</g>
</symbol>
<symbol  id="A_2" viewBox="-87.5 -40 175 80">
	<path class="st0" d="M87.5,24.83c0-8.2-6.56-15.24-14.8-15.24h-2.19c0.58-3.27,1.68-6.61,1.68-10.38C72.19-22.58,54.1-40,32.81-40
		C15.82-40,1.09-28.53-4.37-13.36c-2.77-0.51-5.47-1.6-8.75-1.6c-15.31,0-26.83,11.98-26.83,27.22s12.03,27.22,26.83,27.22h86.41
		C81.52,38.91,87.5,32.96,87.5,24.83L87.5,24.83z M-80.35-1.89c-3.86,0-7.15,3.27-7.15,7.04c0,3.85,3.28,7.11,7.15,7.11h33.83
		c0-4.94,1.17-9.8,3.35-14.16H-80.35z M-43.75,25.85h-26.76c-3.86,0-7.15,3.34-7.15,7.11S-74.38,40-70.51,40h37.19
		C-37.7,36.22-41.56,31.87-43.75,25.85L-43.75,25.85z M-8.17-20.98c2.19-4.35,4.89-8.13,8.17-11.4h-58.55
		c-3.79,0-7.07,3.27-7.07,7.04c0,3.85,3.28,7.11,7.07,7.11h31.72c4.38-2.18,8.82-3.27,17.28-3.19
		C-11.52-20.98-9.84-20.98-8.17-20.98z"/>
</symbol>
<symbol  id="A_3" viewBox="-45 -40 90 80">
	<path class="st1" d="M41.58-40h-83.34c-1.8,0-3.24,1.78-3.24,3.56v10.67h90v-10.67C45-38.22,43.56-40,41.58-40z M-45,36.62
		c0,1.78,1.44,3.38,3.24,3.38h83.34c1.8,0,3.42-1.42,3.42-3.38v-58.84h-90V36.62z M-37.8-15.11h75.6v12.44h-75.6V-15.11z
		 M-37.8,2.67h75.6v12.44h-75.6V2.67z M-37.8,20.44h75.6v12.44h-75.6V20.44L-37.8,20.44z"/>
</symbol>
<symbol  id="A_4" viewBox="-35 -50 70 100">
	<path class="st2" d="M35,38.18C35,17.91,18.68,1.55-1.2,2.24l0,0C-20.21,2.89-35,19.5-35,38.94l0,0V50h70V38.18z M21.22-28.31
		C21.22-40.29,11.72-50,0-50l0,0c-11.72,0-21.22,9.71-21.22,21.69l0,0c0,11.98,9.5,21.69,21.22,21.69l0,0
		C11.72-6.61,21.22-16.33,21.22-28.31L21.22-28.31L21.22-28.31z"/>
</symbol>
<symbol  id="C" viewBox="-25 -32 50 64">
	<path class="st3" d="M25-12L5-32h-25c-2.76-0.01-4.99,2.22-5,4.98c0,0.01,0,0.01,0,0.02v54c-0.01,2.76,2.22,4.99,4.98,5
		c0.01,0,0.01,0,0.02,0h40c2.76,0.01,4.99-2.22,5-4.98c0-0.01,0-0.01,0-0.02V-12z"/>
	<g>
		<path class="st4" d="M-18.75,11.12L-8.21-4.29l8.94,9.25l6.78,6.17H-18.75z"/>
		<path class="st4" d="M18.75,11.12L7.21-4.29l-8.94,9.25l-6.78,6.17H18.75z"/>
	</g>
	<circle class="st4" cx="-0.65" cy="-8.15" r="3.85"/>
	<g transform="matrix(-1 0 0 -1 50 20)">
		<path class="st5" d="M45,52L25,32h15c2.76-0.01,4.99,2.22,5,4.98c0,0.01,0,0.01,0,0.02V52z"/>
	</g>
</symbol>
<symbol  id="C_2" viewBox="-25 -32 50 64">
	<path class="st6" d="M25-12L5-32h-25c-2.76-0.01-4.99,2.22-5,4.98c0,0.01,0,0.01,0,0.02v54c-0.01,2.76,2.22,4.99,4.98,5
		c0.01,0,0.01,0,0.02,0h40c2.76,0.01,4.99-2.22,5-4.98c0-0.01,0-0.01,0-0.02V-12z"/>
	<g transform="matrix(-1 0 0 -1 50 20)">
		<path class="st7" d="M45,52L25,32h15c2.76-0.01,4.99,2.22,5,4.98c0,0.01,0,0.01,0,0.02V52z"/>
	</g>
	<path class="st4" d="M-5.57,1.92l-6.68,2.4l6.68,2.35v3.28l-10.09-4.28V2.91l10.09-4.28V1.92z M4.57-5.5l-6.28,18.53h-2.52
		L2.05-5.5C2.05-5.5,4.57-5.5,4.57-5.5z M6.29,6.7l6.81-2.41L6.29,1.91v-3.26L16.5,2.92v2.75L6.29,9.97V6.7L6.29,6.7z"/>
</symbol>
<symbol  id="D" viewBox="-25 -32 50 64">
	<g transform="matrix(-1 0 0 -1 50 20)">
		<g>
			<path id="C_00000028325410615327589950000016082324743122806197_" class="st8" d="M45,52L25,32h15c2.76-0.01,4.99,2.22,5,4.98
				c0,0.01,0,0.01,0,0.02V52z"/>
		</g>
	</g>
	<path class="st9" d="M25-12L5-32h-25c-2.76-0.01-4.99,2.22-5,4.98c0,0.01,0,0.01,0,0.02v54c-0.01,2.76,2.22,4.99,4.98,5
		c0.01,0,0.01,0,0.02,0h40c2.76,0.01,4.99-2.22,5-4.98c0-0.01,0-0.01,0-0.02V-12z"/>
	<g transform="matrix(-1 0 0 -1 50 20)">
		<g>
			<path id="C_00000179640892281079459310000008828965467600605620_" class="st10" d="M45,52L25,32h15c2.76-0.01,4.99,2.22,5,4.98
				c0,0.01,0,0.01,0,0.02V52z"/>
		</g>
		<g>
			<path id="C_00000058571156590777300970000001372439732979821722_" class="st11" d="M45,52L25,32h15c2.76-0.01,4.99,2.22,5,4.98
				c0,0.01,0,0.01,0,0.02V52z"/>
		</g>
	</g>
	<path class="st12" d="M-5.96,11.95V0.72h3.34v11.22c0,1.03-0.23,1.94-0.68,2.73s-1.1,1.4-1.93,1.83s-1.77,0.65-2.82,0.65
		c-1.71,0-3.05-0.44-4.01-1.31c-0.96-0.87-1.44-2.11-1.44-3.7h3.36c0,0.79,0.17,1.38,0.5,1.76c0.33,0.38,0.86,0.57,1.58,0.57
		c0.64,0,1.15-0.22,1.53-0.66C-6.15,13.38-5.96,12.76-5.96,11.95z M8.65,12.68c0-0.63-0.22-1.12-0.67-1.45
		c-0.45-0.34-1.25-0.69-2.41-1.07C4.42,9.79,3.5,9.42,2.82,9.05C0.98,8.06,0.06,6.72,0.06,5.03c0-0.88,0.25-1.66,0.74-2.34
		C1.3,2,2.01,1.46,2.93,1.08C3.85,0.69,4.89,0.5,6.04,0.5c1.16,0,2.19,0.21,3.1,0.63c0.91,0.42,1.61,1.01,2.11,1.78S12,4.54,12,5.51
		H8.66c0-0.74-0.23-1.32-0.7-1.73C7.49,3.37,6.83,3.16,5.99,3.16c-0.82,0-1.45,0.17-1.9,0.52S3.4,4.48,3.4,5.04
		c0,0.53,0.27,0.97,0.8,1.33c0.53,0.36,1.31,0.69,2.34,1c1.9,0.57,3.28,1.28,4.15,2.13c0.87,0.85,1.3,1.9,1.3,3.16
		c0,1.4-0.53,2.5-1.59,3.3c-1.06,0.8-2.49,1.2-4.29,1.2c-1.25,0-2.38-0.23-3.41-0.69c-1.02-0.46-1.81-1.08-2.34-1.88
		c-0.54-0.79-0.81-1.71-0.81-2.76h3.35c0,1.79,1.07,2.68,3.21,2.68c0.79,0,1.41-0.16,1.86-0.48C8.43,13.71,8.65,13.26,8.65,12.68
		L8.65,12.68z"/>
</symbol>
<symbol  id="D_2" viewBox="-25 -32 50 64">
	<g>
		<path class="st13" d="M5.5-5.5C-2.72-5.5-2.72,13-10.94,13"/>
		<path class="st13" d="M-2.31,3.13h6.17"/>
	</g>
	<path class="st14" d="M25-12L5-32h-25c-2.76-0.01-4.99,2.22-5,4.98c0,0.01,0,0.01,0,0.02v54c-0.01,2.76,2.22,4.99,4.98,5
		c0.01,0,0.01,0,0.02,0h40c2.76,0.01,4.99-2.22,5-4.98c0-0.01,0-0.01,0-0.02V-12z"/>
	<g transform="matrix(-1 0 0 -1 50 20)">
		<path class="st15" d="M45,52L25,32h15c2.76-0.01,4.99,2.22,5,4.98c0,0.01,0,0.01,0,0.02V52z"/>
	</g>
	<g>
		<path class="st4" d="M-11.56,10.47L-12.09,12c-2.26-0.64-3.4-2.1-3.4-4.39V5.73c0-1.33-0.56-1.99-1.68-1.99V1.79
			c1.09,0,1.65-0.63,1.68-1.88v-2c0-1.16,0.28-2.1,0.85-2.82c0.57-0.72,1.42-1.24,2.55-1.56l0.53,1.52
			c-0.48,0.18-0.84,0.48-1.09,0.92c-0.25,0.44-0.37,1.04-0.39,1.82v1.98c0,1.42-0.56,2.42-1.69,2.99c1.13,0.58,1.69,1.58,1.69,3.01
			v2C-13,9.24-12.51,10.14-11.56,10.47L-11.56,10.47z"/>
		<g>
			<path id="C_00000124872596103056391400000001937736267529732258_" class="st4" d="M-5.24,7.26c0-0.43,0.15-0.79,0.44-1.06
				S-4.14,5.8-3.7,5.8c0.45,0,0.82,0.14,1.11,0.41c0.29,0.27,0.44,0.62,0.44,1.06c0,0.43-0.14,0.78-0.43,1.04s-0.66,0.4-1.11,0.4
				c-0.45,0-0.81-0.13-1.1-0.4S-5.24,7.69-5.24,7.26z"/>
		</g>
		<g>
			<path id="C_00000127728582906828534460000002267217960688518306_" class="st4" d="M0.38,7.26c0-0.43,0.15-0.79,0.44-1.06
				S1.48,5.8,1.92,5.8c0.45,0,0.82,0.14,1.11,0.41c0.29,0.27,0.44,0.62,0.44,1.06c0,0.43-0.14,0.78-0.43,1.04s-0.66,0.4-1.11,0.4
				c-0.45,0-0.81-0.13-1.1-0.4S0.38,7.69,0.38,7.26z"/>
		</g>
		<path class="st4" d="M10.46,12l-0.53-1.53c0.96-0.34,1.45-1.25,1.47-2.74v-2c0-1.42,0.58-2.41,1.73-2.96
			c-1.15-0.55-1.73-1.56-1.73-3.01v-1.97c-0.03-1.47-0.52-2.38-1.47-2.74l0.53-1.52c1.13,0.31,1.97,0.83,2.54,1.54
			c0.57,0.71,0.85,1.65,0.86,2.81v2.03c0.03,1.25,0.59,1.88,1.68,1.88v1.95c-1.12,0-1.68,0.66-1.68,1.97v2.05
			C13.81,9.96,12.68,11.38,10.46,12z"/>
	</g>
</symbol>
<rect x="1" y="1" class="st16" width="318" height="127.34"/>
<rect x="53.89" y="17.35" class="st17" width="259.92" height="104.42"/>
<use xlink:href="#A"  width="80" height="80" id="XMLID_00000045595784231802557560000009268941310035419054_" x="-40" y="-40" transform="matrix(0.3117 0 0 0.3117 96.5422 79.8251)" style="overflow:visible;"/>
<use xlink:href="#A_2"  width="175" height="80" x="-87.5" y="-40" transform="matrix(0.2523 0 0 0.2523 165.0772 78.5217)" style="overflow:visible;"/>
<g>
	<g>
		
			<use xlink:href="#D"  width="50" height="64" x="-25" y="-32" transform="matrix(0.3633 0 0 0.3633 243.4926 41.8881)" style="overflow:visible;"/>
		
			<use xlink:href="#C"  width="50" height="64" x="-25" y="-32" transform="matrix(0.3633 0 0 0.3633 288.7467 41.8881)" style="overflow:visible;"/>
		
			<use xlink:href="#D_2"  width="50" height="64" x="-25" y="-32" transform="matrix(0.3633 0 0 0.3633 220.8656 41.8881)" style="overflow:visible;"/>
		
			<use xlink:href="#C_2"  width="50" height="64" x="-25" y="-32" transform="matrix(0.3633 0 0 0.3633 266.1197 41.8881)" style="overflow:visible;"/>
	</g>
	
		<use xlink:href="#A_3"  width="90" height="80" x="-45" y="-40" transform="matrix(0.2961 0 0 0.2961 255.9495 76.7729)" style="overflow:visible;"/>
</g>
<text transform="matrix(1 0 0 1 236.067 102.4465)" class="st18 st19">Azure Storage</text>
<text transform="matrix(1 0 0 1 153.1139 102.4484)" class="st18 st19">Azure CDN</text>
<text transform="matrix(1 0 0 1 80.1266 102.4484)"><tspan x="0" y="0" class="st18 st19">Azure DNS</tspan><tspan x="-3.74" y="8.26" class="st18 st19">CNAME Entry</tspan></text>
<g>
	<g>
		<line class="st20" x1="115.8" y1="79.15" x2="130.94" y2="79.15"/>
		<g>
			<polygon points="129.48,84.14 138.12,79.15 129.48,74.16 			"/>
		</g>
	</g>
</g>
<g>
	<g>
		<line class="st20" x1="191.34" y1="79.22" x2="228.98" y2="79.22"/>
		<g>
			<polygon points="227.52,84.2 236.16,79.22 227.52,74.23 			"/>
		</g>
	</g>
</g>
<use xlink:href="#A_4"  width="70" height="100" x="-35" y="-50" transform="matrix(0.2601 0 0 0.2601 16.9283 77.5461)" style="overflow:visible;"/>
<g>
	<g>
		<line class="st20" x1="36.65" y1="79.53" x2="64.35" y2="79.78"/>
		<g>
			<polygon points="62.85,84.76 71.53,79.85 62.94,74.78 			"/>
		</g>
	</g>
</g>
<text transform="matrix(1 0 0 1 54.0197 14.4431)" class="st18 st19">Azure</text>
</svg>
